<svg width="801" height="696" viewBox="0 0 801 696" fill="none" xmlns="http://www.w3.org/2000/svg">
<g id="undraw_bike_ride_7xit 1">
<g id="maniubro">
<path id="Vector" d="M476.318 464.763C476.09 464.762 475.868 464.684 475.69 464.54C475.512 464.396 475.389 464.196 475.342 463.972L470.665 442.128C470.633 441.982 470.635 441.831 470.67 441.686C470.704 441.541 470.771 441.406 470.865 441.29C470.958 441.174 471.077 441.08 471.211 441.016C471.346 440.952 471.493 440.918 471.642 440.918H487.508V430.196C487.508 429.931 487.614 429.676 487.801 429.489C487.989 429.301 488.243 429.196 488.508 429.196C488.774 429.196 489.028 429.301 489.215 429.489C489.403 429.676 489.508 429.931 489.508 430.196V441.918C489.508 442.184 489.403 442.438 489.215 442.626C489.028 442.813 488.774 442.918 488.508 442.918H472.879L477.297 463.553C477.329 463.699 477.327 463.85 477.292 463.995C477.258 464.141 477.191 464.276 477.097 464.392C477.003 464.508 476.885 464.602 476.75 464.666C476.615 464.73 476.468 464.763 476.318 464.763L476.318 464.763Z" fill="#2F2E41"/>
</g>
<g id="pierna2">
<path id="Vector_2" d="M441.946 461.24H427.186C425.463 461.242 423.811 461.927 422.592 463.146C421.374 464.364 420.688 466.017 420.686 467.74V559.75C420.688 561.473 421.373 563.126 422.592 564.344C423.811 565.563 425.463 566.248 427.186 566.25H441.946C442.8 566.25 443.645 566.082 444.434 565.755C445.222 565.429 445.939 564.95 446.543 564.346C447.146 563.743 447.625 563.026 447.952 562.237C448.278 561.449 448.446 560.604 448.446 559.75V467.74C448.446 466.886 448.278 466.041 447.952 465.253C447.625 464.464 447.146 463.747 446.543 463.144C445.939 462.54 445.222 462.061 444.434 461.735C443.645 461.408 442.8 461.24 441.946 461.24V461.24Z" fill="#8263FF"/>
<path id="Vector_3" d="M432.841 494.612C431.765 494.612 430.698 494.411 429.697 494.018L347.477 461.852C345.287 460.965 343.539 459.246 342.615 457.072C341.691 454.898 341.666 452.446 342.548 450.254L349.583 432.272C350.439 430.054 352.135 428.263 354.302 427.286C355.36 426.801 356.505 426.535 357.668 426.503C358.832 426.471 359.99 426.673 361.073 427.099L443.293 459.266C444.377 459.689 445.365 460.326 446.198 461.139C447.03 461.952 447.691 462.924 448.14 463.998C449.069 466.186 449.098 468.652 448.222 470.862L441.187 488.845C440.535 490.533 439.391 491.985 437.902 493.014C436.414 494.043 434.65 494.6 432.841 494.612V494.612Z" fill="#CCCCCC"/>
<path id="Vector_4" d="M442.378 572H426.378C424.92 572 423.521 571.421 422.489 570.389C421.458 569.358 420.878 567.959 420.878 566.5C420.878 565.041 421.458 563.642 422.489 562.611C423.521 561.579 424.92 561 426.378 561H442.378C443.837 561 445.236 561.579 446.268 562.611C447.299 563.642 447.878 565.041 447.878 566.5C447.878 567.959 447.299 569.358 446.268 570.389C445.236 571.421 443.837 572 442.378 572Z" fill="#2F2E41"/>
</g>
<g id="pierna1">
<path id="Vector_5" d="M393.378 619H377.378C375.92 619 374.521 618.421 373.489 617.389C372.458 616.358 371.878 614.959 371.878 613.5C371.878 612.041 372.458 610.642 373.489 609.611C374.521 608.579 375.92 608 377.378 608H393.378C394.837 608 396.236 608.579 397.268 609.611C398.299 610.642 398.878 612.041 398.878 613.5C398.878 614.959 398.299 616.358 397.268 617.389C396.236 618.421 394.837 619 393.378 619V619Z" fill="#2F2E41"/>
<path id="Vector_6" d="M392.946 505.24H378.186C376.463 505.242 374.811 505.927 373.592 507.146C372.374 508.364 371.688 510.017 371.686 511.74V603.75C371.688 605.473 372.373 607.126 373.592 608.344C374.811 609.563 376.463 610.248 378.186 610.25H392.946C393.8 610.25 394.645 610.082 395.434 609.755C396.222 609.429 396.939 608.95 397.543 608.346C398.146 607.743 398.625 607.026 398.952 606.237C399.278 605.449 399.446 604.604 399.446 603.75V511.74C399.446 510.886 399.278 510.041 398.952 509.253C398.625 508.464 398.146 507.747 397.543 507.144C396.939 506.54 396.222 506.061 395.434 505.735C394.645 505.408 393.8 505.24 392.946 505.24V505.24Z" fill="#8263FF"/>
<path id="Vector_7" d="M370.699 536.892C365.974 536.893 361.898 533.968 361.174 529.755L346.209 442.745C346.02 441.561 346.092 440.349 346.42 439.195C346.749 438.041 347.326 436.973 348.112 436.066C349.799 434.073 352.144 432.749 354.723 432.335L376.33 428.619C381.849 427.67 387.008 430.796 387.832 435.586L402.796 522.597C402.986 523.781 402.915 524.992 402.587 526.145C402.259 527.299 401.683 528.367 400.899 529.274C399.211 531.269 396.863 532.593 394.282 533.006L372.676 536.722C372.023 536.835 371.362 536.892 370.699 536.892V536.892Z" fill="#CCCCCC"/>
</g>
<g id="marco">
<path id="Vector_8" d="M530.305 589.81C530.111 589.81 529.921 589.753 529.758 589.647C529.595 589.541 529.467 589.389 529.389 589.211L477.882 472.055C477.645 471.511 477.252 471.051 476.752 470.732C476.252 470.413 475.668 470.25 475.075 470.264L334.143 473.14C333.639 473.149 333.146 473.285 332.709 473.536C332.272 473.787 331.906 474.144 331.644 474.575L264.007 585.178C263.869 585.404 263.646 585.566 263.388 585.628C263.131 585.69 262.859 585.648 262.633 585.509C262.406 585.371 262.244 585.148 262.182 584.891C262.12 584.633 262.163 584.361 262.301 584.135L329.938 473.531C330.374 472.814 330.985 472.219 331.713 471.801C332.44 471.383 333.262 471.155 334.102 471.14L475.034 468.264C476.022 468.244 476.993 468.517 477.826 469.048C478.659 469.58 479.315 470.346 479.713 471.25L531.22 588.407C531.287 588.559 531.315 588.725 531.301 588.891C531.287 589.057 531.233 589.216 531.142 589.355C531.051 589.495 530.927 589.609 530.781 589.688C530.635 589.768 530.471 589.809 530.305 589.81L530.305 589.81Z" fill="#2F2E41"/>
</g>
<g id="men&#38;bike">
<path id="Vector_9" d="M241.267 690.17L241.196 690.52L241.176 690.6C241.176 690.57 241.167 690.55 241.167 690.52C241.147 690.39 241.136 690.26 241.117 690.13C241.166 690.14 241.216 690.16 241.267 690.17Z" fill="#F2F2F2"/>
<path id="Vector_10" d="M232.626 693.02C231.957 691.97 231.287 690.93 230.626 689.88C230.057 688.99 229.497 688.1 228.936 687.21C228.796 686.99 228.657 686.78 228.537 686.56C230.376 687.13 232.223 687.677 234.077 688.2C234.226 688.45 234.386 688.71 234.557 688.96C235.006 689.67 235.456 690.39 235.916 691.1C235.986 691.22 236.046 691.33 236.097 691.44C236.886 693.37 233.876 694.96 232.626 693.02Z" fill="white"/>
<path id="Vector_11" d="M226.146 690.99C226.097 690.92 226.046 690.84 225.997 690.77C226.026 690.76 226.046 690.76 226.077 690.75L226.146 690.99Z" fill="#F2F2F2"/>
<path id="Vector_12" d="M558.986 690.17L559.057 690.52L559.077 690.6C559.077 690.57 559.086 690.55 559.086 690.52C559.106 690.39 559.117 690.26 559.136 690.13C559.086 690.14 559.037 690.16 558.986 690.17Z" fill="#F2F2F2"/>
<path id="Vector_13" d="M567.626 693.02C568.296 691.97 568.966 690.93 569.626 689.88C570.196 688.99 570.756 688.1 571.316 687.21C571.457 686.99 571.596 686.78 571.716 686.56C569.876 687.13 568.03 687.677 566.176 688.2C566.026 688.45 565.867 688.71 565.696 688.96C565.247 689.67 564.796 690.39 564.336 691.1C564.267 691.22 564.206 691.33 564.156 691.44C563.367 693.37 566.376 694.96 567.626 693.02Z" fill="white"/>
<path id="Vector_14" d="M574.106 690.99C574.156 690.92 574.206 690.84 574.256 690.77C574.227 690.76 574.206 690.76 574.176 690.75L574.106 690.99Z" fill="#F2F2F2"/>
<path id="Vector_15" d="M368.995 357.486C368.185 357.76 367.438 358.192 366.796 358.757C366.155 359.322 365.632 360.009 365.258 360.777L360.122 371.223L358.747 374.016C357.987 375.563 357.872 377.348 358.426 378.979C358.98 380.611 360.159 381.957 361.703 382.721L401.505 402.303L472.089 437.014C473.563 437.737 475.255 437.877 476.827 437.406C478.399 436.934 479.735 435.886 480.568 434.472C480.651 434.333 480.721 434.2 480.795 434.058L484.727 426.065L487.309 420.81C487.518 420.39 487.68 419.949 487.792 419.493C488.086 418.288 488.03 417.023 487.631 415.848C487.357 415.038 486.926 414.29 486.361 413.649C485.796 413.007 485.109 412.484 484.34 412.11L475.925 407.969L413.678 377.353L373.958 357.808C372.412 357.047 370.627 356.931 368.995 357.486V357.486Z" fill="#8263FF"/>
<path id="Vector_16" d="M356.681 361.363C355.939 362.395 355.307 363.501 354.797 364.664C352.822 369.154 352.708 374.243 354.48 378.816C356.252 383.39 359.766 387.074 364.25 389.06L395.355 402.79C396.341 403.223 397.418 403.404 398.491 403.319C399.564 403.234 400.6 402.885 401.505 402.303C402.242 401.827 402.874 401.206 403.361 400.477C403.58 400.159 403.769 399.822 403.926 399.469L413.618 377.513C413.643 377.462 413.663 377.408 413.678 377.353C414.322 375.787 414.329 374.031 413.697 372.46C413.066 370.889 411.846 369.627 410.297 368.942L379.193 355.211C375.304 353.5 370.945 353.178 366.846 354.298C362.748 355.418 359.159 357.912 356.681 361.363Z" fill="#86241E"/>
<path id="Vector_17" d="M316.493 472.314C314.483 472.33 312.477 472.118 310.514 471.683C301.637 469.634 298.359 465.738 297.822 463.759C297.704 463.456 297.672 463.127 297.729 462.808C297.786 462.488 297.931 462.191 298.147 461.949C298.37 461.758 298.642 461.636 298.933 461.595C299.223 461.555 299.519 461.599 299.785 461.721C302.542 462.642 341.632 454.912 355.514 451.708C361.287 450.376 365.339 450.596 367.557 452.36C368.008 452.692 368.381 453.117 368.652 453.606C368.922 454.096 369.084 454.638 369.126 455.195V455.543L341.825 465.655C340.941 466.094 328.22 472.314 316.493 472.314Z" fill="#2F2E41"/>
<path id="Vector_18" d="M367.126 597C366.909 597 366.698 596.93 366.525 596.799C366.351 596.668 366.225 596.485 366.165 596.276L333.566 482.855C333.493 482.6 333.525 482.327 333.653 482.096C333.782 481.864 333.997 481.693 334.251 481.62C334.506 481.547 334.779 481.577 335.011 481.705C335.243 481.833 335.414 482.048 335.488 482.302L368.088 595.724C368.124 595.85 368.135 595.982 368.12 596.112C368.105 596.243 368.065 596.369 368.001 596.484C367.938 596.599 367.852 596.7 367.749 596.782C367.647 596.864 367.529 596.925 367.403 596.961C367.313 596.987 367.22 597.001 367.126 597V597Z" fill="#2F2E41"/>
<path id="Vector_19" d="M374.126 465.5H342.126C336.161 465.493 330.442 463.121 326.224 458.902C322.006 454.684 319.633 448.965 319.626 443V438C319.633 432.035 322.006 426.316 326.224 422.098C330.442 417.879 336.161 415.507 342.126 415.5H374.126C380.092 415.507 385.811 417.879 390.029 422.098C394.247 426.316 396.62 432.035 396.626 438V443C396.62 448.965 394.247 454.684 390.029 458.902C385.811 463.121 380.092 465.493 374.126 465.5V465.5Z" fill="#CCCCCC"/>
<path id="Vector_20" d="M538.378 608.196C541.692 608.196 544.378 605.509 544.378 602.196C544.378 598.882 541.692 596.196 538.378 596.196C535.065 596.196 532.378 598.882 532.378 602.196C532.378 605.509 535.065 608.196 538.378 608.196Z" fill="#2F2E41"/>
<path id="Vector_21" d="M256.378 608.196C259.692 608.196 262.378 605.509 262.378 602.196C262.378 598.882 259.692 596.196 256.378 596.196C253.065 596.196 250.378 598.882 250.378 602.196C250.378 605.509 253.065 608.196 256.378 608.196Z" fill="#2F2E41"/>
<path id="Vector_22" d="M470.297 429.029C469.471 429.03 468.671 428.739 468.039 428.207C467.408 427.675 466.984 426.937 466.844 426.123C466.704 425.309 466.856 424.471 467.274 423.759C467.692 423.046 468.348 422.504 469.127 422.229L499.297 411.563C500.172 411.254 501.134 411.304 501.971 411.704C502.809 412.104 503.453 412.821 503.763 413.696C504.072 414.571 504.021 415.533 503.621 416.371C503.222 417.208 502.505 417.853 501.63 418.162L471.46 428.829C471.087 428.961 470.693 429.029 470.297 429.029V429.029Z" fill="#2F2E41"/>
<path id="Vector_23" d="M391.28 596.195C391.084 596.195 390.892 596.138 390.728 596.029C390.564 595.921 390.436 595.767 390.36 595.586C390.283 595.406 390.261 595.206 390.297 595.013C390.332 594.82 390.424 594.642 390.56 594.501L480.964 500.801C481.055 500.706 481.164 500.63 481.285 500.577C481.405 500.524 481.535 500.496 481.666 500.493C481.798 500.491 481.929 500.514 482.051 500.562C482.174 500.61 482.285 500.682 482.38 500.773C482.475 500.865 482.551 500.974 482.603 501.094C482.655 501.215 482.684 501.345 482.686 501.477C482.688 501.608 482.664 501.739 482.616 501.861C482.567 501.983 482.495 502.095 482.404 502.189L392 595.89C391.907 595.986 391.795 596.064 391.671 596.116C391.547 596.169 391.414 596.196 391.28 596.195V596.195Z" fill="#2F2E41"/>
<path id="Vector_24" d="M272.603 608.243C272.338 608.244 272.083 608.139 271.895 607.951C271.707 607.764 271.602 607.51 271.601 607.245C271.601 606.979 271.706 606.725 271.893 606.537C272.08 606.349 272.335 606.244 272.6 606.243L356.124 606H356.126C356.392 606 356.646 606.105 356.834 606.292C357.022 606.479 357.128 606.733 357.128 606.999C357.128 607.264 357.023 607.518 356.836 607.706C356.649 607.894 356.395 608 356.129 608L272.606 608.243H272.603Z" fill="#2F2E41"/>
<path id="Vector_25" d="M374.126 634C370.171 634 366.304 632.827 363.015 630.629C359.726 628.432 357.163 625.308 355.649 621.654C354.135 617.999 353.739 613.978 354.511 610.098C355.282 606.219 357.187 602.655 359.984 599.858C362.781 597.061 366.345 595.156 370.225 594.384C374.104 593.613 378.126 594.009 381.78 595.522C385.435 597.036 388.558 599.6 390.756 602.889C392.953 606.178 394.126 610.044 394.126 614C394.12 619.303 392.011 624.386 388.262 628.136C384.513 631.885 379.429 633.994 374.126 634V634ZM374.126 596C370.566 596 367.086 597.056 364.126 599.034C361.166 601.011 358.859 603.823 357.497 607.112C356.134 610.401 355.778 614.02 356.472 617.512C357.167 621.003 358.881 624.211 361.399 626.728C363.916 629.245 367.123 630.96 370.615 631.654C374.107 632.349 377.726 631.992 381.015 630.63C384.304 629.267 387.115 626.96 389.093 624C391.071 621.04 392.126 617.56 392.126 614C392.121 609.228 390.223 604.653 386.848 601.278C383.474 597.904 378.899 596.005 374.126 596V596Z" fill="#2F2E41"/>
<path id="Vector_26" d="M775.399 694.994H37.1054C36.7896 694.994 36.4868 694.868 36.2635 694.645C36.0402 694.422 35.9147 694.119 35.9147 693.803C35.9147 693.487 36.0402 693.184 36.2635 692.961C36.4868 692.738 36.7896 692.612 37.1054 692.612H775.399C775.715 692.612 776.018 692.738 776.241 692.961C776.465 693.184 776.59 693.487 776.59 693.803C776.59 694.119 776.465 694.422 776.241 694.645C776.018 694.868 775.715 694.994 775.399 694.994Z" fill="#3F3D56"/>
<path id="Vector_27" d="M383.074 330.332C382.223 330.414 381.397 330.665 380.644 331.069C379.89 331.473 379.225 332.023 378.686 332.686L371.308 341.689L369.333 344.096C368.242 345.43 367.723 347.141 367.891 348.856C368.06 350.572 368.901 352.15 370.231 353.246L404.534 381.37L465.368 431.232C466.638 432.271 468.254 432.792 469.892 432.691C471.531 432.59 473.07 431.873 474.203 430.685C474.315 430.57 474.413 430.456 474.517 430.334L480.166 423.446L483.876 418.916C484.174 418.555 484.432 418.161 484.646 417.744C485.206 416.636 485.439 415.392 485.318 414.157C485.236 413.306 484.986 412.48 484.581 411.727C484.177 410.973 483.627 410.308 482.964 409.769L475.712 403.822L422.064 359.845L387.833 331.775C386.501 330.682 384.789 330.163 383.074 330.332V330.332Z" fill="#8263FF"/>
<path id="Vector_28" d="M420.132 356.043L396.271 331.828C392.827 328.332 388.137 326.347 383.23 326.309C378.323 326.272 373.603 328.185 370.107 331.629C366.611 335.072 364.626 339.762 364.589 344.669C364.552 349.576 366.465 354.296 369.908 357.792L393.77 382.007C394.821 383.075 396.208 383.746 397.698 383.908C399.187 384.07 400.686 383.712 401.942 382.895C402.315 382.665 402.658 382.392 402.964 382.079L420.06 365.238C420.664 364.648 421.147 363.944 421.479 363.167C421.983 361.979 422.124 360.669 421.884 359.401C421.644 358.133 421.035 356.965 420.132 356.043Z" fill="#7E231D"/>
<path id="Vector_29" d="M392.636 319.657C390.095 316.763 387.135 314.264 383.856 312.243C376.784 307.948 368.662 305.694 360.388 305.73C352.114 305.766 344.011 308.091 336.977 312.446C334.177 314.215 331.613 316.332 329.347 318.747C323.442 324.876 320.114 333.036 320.046 341.546V437.814C320.042 438.108 320.069 438.401 320.126 438.689C320.597 441.685 323.526 444 327.046 444H394.117C397.966 444 401.117 441.225 401.117 437.814V341.546C401.066 333.457 398.048 325.668 392.636 319.657Z" fill="#86241E"/>
<path id="Vector_30" d="M258.126 692.711C240.128 692.711 222.534 687.374 207.57 677.375C192.605 667.376 180.941 653.164 174.053 636.536C167.166 619.908 165.364 601.611 168.875 583.958C172.386 566.306 181.053 550.091 193.78 537.365C206.506 524.638 222.721 515.971 240.373 512.46C258.026 508.949 276.323 510.751 292.951 517.638C309.579 524.526 323.791 536.19 333.79 551.155C343.789 566.119 349.126 583.713 349.126 601.711C349.099 625.838 339.503 648.968 322.443 666.028C305.383 683.088 282.253 692.684 258.126 692.711V692.711ZM258.126 512.711C240.524 512.711 223.317 517.931 208.681 527.711C194.045 537.49 182.637 551.39 175.901 567.653C169.165 583.915 167.402 601.81 170.837 619.075C174.271 636.339 182.747 652.197 195.194 664.644C207.641 677.091 223.499 685.567 240.763 689.001C258.028 692.435 275.923 690.673 292.185 683.937C308.448 677.201 322.348 665.793 332.127 651.157C341.907 636.521 347.126 619.314 347.126 601.711C347.1 578.115 337.715 555.493 321.03 538.808C304.345 522.123 281.723 512.738 258.126 512.711V512.711Z" fill="#2F2E41"/>
<path id="Vector_31" d="M540.126 692.711C522.128 692.711 504.534 687.374 489.57 677.375C474.605 667.376 462.941 653.164 456.053 636.536C449.166 619.908 447.364 601.611 450.875 583.958C454.386 566.306 463.053 550.091 475.78 537.365C488.506 524.638 504.721 515.971 522.373 512.46C540.025 508.949 558.323 510.751 574.951 517.638C591.579 524.526 605.791 536.19 615.79 551.155C625.789 566.119 631.126 583.713 631.126 601.711C631.099 625.838 621.503 648.968 604.443 666.028C587.383 683.088 564.253 692.684 540.126 692.711ZM540.126 512.711C522.524 512.711 505.317 517.931 490.681 527.711C476.045 537.49 464.637 551.39 457.901 567.653C451.165 583.915 449.402 601.81 452.837 619.075C456.271 636.339 464.747 652.197 477.194 664.644C489.641 677.091 505.499 685.567 522.763 689.001C540.028 692.435 557.923 690.673 574.185 683.937C590.448 677.201 604.348 665.793 614.127 651.157C623.907 636.521 629.126 619.314 629.126 601.711C629.1 578.115 619.715 555.493 603.03 538.808C586.345 522.123 563.723 512.738 540.126 512.711Z" fill="#2F2E41"/>
<g id="head">
<path id="Vector_32" d="M361.189 293.427C390.747 293.427 414.708 269.465 414.708 239.908C414.708 210.35 390.747 186.388 361.189 186.388C331.631 186.388 307.67 210.35 307.67 239.908C307.67 269.465 331.631 293.427 361.189 293.427Z" fill="#8263FF"/>
<path id="Vector_33" d="M406.385 263.566L406.329 261.566C410.05 261.462 413.33 261.229 415.795 259.428C416.494 258.889 417.068 258.205 417.479 257.424C417.89 256.642 418.128 255.781 418.176 254.9C418.22 254.361 418.138 253.82 417.938 253.318C417.738 252.816 417.425 252.367 417.023 252.005C415.387 250.624 412.754 251.071 410.835 251.951L409.181 252.709L412.354 229.519L414.335 229.791L411.636 249.517C414.244 248.751 416.66 249.081 418.314 250.478C418.95 251.033 419.448 251.727 419.771 252.506C420.094 253.285 420.232 254.129 420.175 254.97C420.116 256.155 419.8 257.312 419.247 258.361C418.694 259.41 417.919 260.326 416.975 261.043C413.808 263.358 409.692 263.473 406.385 263.566Z" fill="#2F2E41"/>
<path id="Vector_34" d="M400.906 231.492H390.135V233.492H400.906V231.492Z" fill="#2F2E41"/>
<path id="Vector_35" d="M373.218 244.172C366.122 246.529 358.157 241.684 357.705 234.052C357.577 232.281 357.845 230.503 358.489 228.848C359.133 227.193 360.137 225.702 361.429 224.484C363.81 222.453 366.73 221.159 369.834 220.761C376.572 219.592 383.497 220.54 390.264 219.533C397.09 218.517 403.107 214.991 406.098 208.579C407.532 205.432 408.289 202.02 408.318 198.562C408.348 195.105 407.651 191.679 406.271 188.509C403.166 181.408 397.075 176 390.364 172.36C377.448 165.354 361.946 163.974 347.714 167.082C333.42 170.118 320.531 177.793 311.052 188.915C309.918 190.281 308.843 191.694 307.827 193.154C307.696 193.382 307.627 193.64 307.627 193.904C307.627 194.167 307.696 194.425 307.827 194.654C307.958 194.882 308.147 195.072 308.374 195.205C308.601 195.337 308.859 195.408 309.122 195.411L317.896 194.355L316.601 192.098L307.065 209.242C306.478 210.296 307.473 211.93 308.759 211.445L322.743 206.175L321.284 203.668L307.404 220.567C306.188 222.047 308.299 224.181 309.525 222.688L323.405 205.789C324.248 204.763 323.496 202.698 321.946 203.282L307.961 208.552L309.655 210.756L319.191 193.612C319.689 192.717 319.082 191.212 317.896 191.355L309.122 192.411L310.417 194.668C318.613 182.93 331.185 174.663 344.911 170.866C358.687 167.054 374.024 167.665 386.985 173.99C393.834 177.333 400.099 182.354 403.389 189.378C404.795 192.418 405.463 195.747 405.34 199.094C405.217 202.441 404.307 205.712 402.682 208.642C395.156 221.491 377.609 214.888 365.867 218.63C359.168 220.765 354.359 226.657 354.694 233.873C354.886 237.531 356.438 240.986 359.045 243.559C361.653 246.132 365.127 247.638 368.788 247.782C370.56 247.87 372.333 247.627 374.016 247.064C375.839 246.459 375.058 243.56 373.218 244.172L373.218 244.172Z" fill="#2F2E41"/>
</g>
</g>
</g>
</svg>
